PathFileType	4	(X/Y/Z)	RBDS03\RBDS03runT25.trc																																																																																														
DataRate	CameraRate	NumFrames	NumMarkers	Units	OrigDataRate	OrigDataStartFrame	OrigNumFrames																																																																																										
150	150	10	32	mm	150	3375	4500																																																																																										
Frame#	Time	L.ASIS			L.Heel.Bottom			L.Heel.Lateral			L.Heel.Top			L.Iliac.Crest			L.MT1			L.MT5			L.PSIS			L.Shank.Bottom.Lateral			L.Shank.Bottom.Medial			L.Shank.Top.Lateral			L.Shank.Top.Medial			L.Thigh.Bottom.Lateral			L.Thigh.Bottom.Medial			L.Thigh.Top.Lateral			L.Thigh.Top.Medial			R.ASIS			R.MT5			R.Heel.Bottom			R.Heel.Lateral			R.Heel.Top			R.Iliac.Crest			R.MT1			R.PSIS			R.Shank.Bottom.Lateral			R.Shank.Bottom.Medial			R.Shank.Top.Lateral			R.Shank.Top.Medial			R.Thigh.Bottom.Lateral			R.Thigh.Bottom.Medial			R.Thigh.Top.Lateral			R.Thigh.Top.Medial		
		X1	Y1	Z1	X2	Y2	Z2	X3	Y3	Z3	X4	Y4	Z4	X5	Y5	Z5	X6	Y6	Z6	X7	Y7	Z7	X8	Y8	Z8	X9	Y9	Z9	X10	Y10	Z10	X11	Y11	Z11	X12	Y12	Z12	X13	Y13	Z13	X14	Y14	Z14	X15	Y15	Z15	X16	Y16	Z16	X17	Y17	Z17	X18	Y18	Z18	X19	Y19	Z19	X20	Y20	Z20	X21	Y21	Z21	X22	Y22	Z22	X23	Y23	Z23	X24	Y24	Z24	X25	Y25	Z25	X26	Y26	Z26	X27	Y27	Z27	X28	Y28	Z28	X29	Y29	Z29	X30	Y30	Z30	X31	Y31	Z31	X32	Y32	Z32
																																																																																																	
3376	22.5	2291.400109	1021.739537	913.4548941	1718.313869	536.0954724	948.9957197	1716.452647	505.6255399	898.464404	1764.281149	516.8734638	939.4709169	2229.486282	1090.779523	865.1556688	1705.442991	307.3663856	967.0735733	1679.611767	353.9096819	869.7476899	2120.225235	1049.721671	970.5715216	1838.285594	469.8474014	876.1640983	1834.385927	504.8362637	917.8025612	1914.971568	490.3427507	865.81597	1911.976205	525.5695578	906.0170688	2204.354604	576.1303642	859.1383559	2146.334053	582.4995345	904.3488816	2204.804341	685.0882456	844.2231315	2144.837934	690.9920663	880.3518267	2282.768231	1034.557675	1125.205215	2347.338622	39.69123079	1097.019541	2156.731417	31.11215399	1016.989851	2192.004412	52.6824225	1063.80904	2168.06084	79.16671728	1015.544298	2221.876334	1104.551392	1165.744937	2372.23419	47.09060291	983.5332552	2116.939965	1054.708324	1054.13614	2239.448517	151.0133503	1077.321113	2202.447937	167.2928323	1045.158959	2247.852744	231.5549544	1103.32765	2210.211739	244.7449033	1067.51778	2310.208255	614.6507486	1152.090674	2247.317286	595.6848533	1120.444617	2267.625075	713.8255122	1175.753877	2208.060578	695.5771092	1146.087289
3377	22.50666667	2288.799952	1015.110186	913.7142405	1729.833877	538.7686188	946.1598481	1728.515634	508.2107613	895.8496118	1775.563461	518.4053569	938.1114646	2226.593737	1082.41808	864.403304	1711.206495	310.2680236	964.742815	1688.967098	357.1720855	866.6368987	2117.52118	1043.285683	970.548609	1848.716638	469.7214361	874.9790184	1845.404309	505.0559253	916.3952901	1925.813512	488.6904049	864.6115081	1923.406553	524.2289485	904.5884482	2213.227979	570.4385928	858.5516278	2154.212642	575.3476313	902.5983371	2211.216253	679.44371	843.5790486	2150.381166	683.6655975	878.4300489	2279.84832	1028.615766	1125.082116	2331.337442	39.98249335	1096.462854	2140.664614	32.38506384	1016.420156	2176.167711	54.28507488	1062.93997	2152.799578	80.33476192	1014.1485	2219.610707	1096.21889	1166.565235	2356.552288	45.80623576	983.2392807	2114.001251	1048.468426	1053.778882	2228.877983	150.8264005	1075.195893	2191.783283	168.5457108	1043.914857	2240.7375	230.8630323	1101.514926	2202.818341	245.5818796	1066.512901	2311.230046	610.5408994	1151.157127	2248.460033	591.1915038	1119.41191	2267.801703	709.1476606	1175.428952	2208.348237	690.5571437	1145.678319
3378	22.51333333	2286.078247	1008.95435	914.0337364	1741.109032	540.4164294	943.3788827	1740.591479	509.7038439	893.3200747	1786.698933	519.2642244	936.8547797	2223.445443	1074.426092	863.7794301	1718.441589	312.1815749	962.6301326	1699.545247	359.0680977	863.7259325	2114.756035	1037.356681	970.4926155	1859.528791	469.1340129	873.921477	1856.693906	504.8732383	915.0761012	1936.96292	486.8095998	863.5373286	1935.031325	522.7062261	903.2448495	2222.36932	565.5634576	858.0938885	2162.460288	568.941754	901.0312285	2217.821514	674.5376896	843.0719244	2156.156369	677.0372214	876.6469868	2276.884452	1022.957377	1125.090699	2315.145356	40.67944488	1096.037377	2124.619941	33.59020567	1015.892935	2160.232117	55.79255447	1062.204771	2137.333654	81.43502222	1012.974232	2217.220123	1088.02093	1167.47476	2340.598264	45.3534741	983.1822821	2111.024254	1042.61862	1053.369527	2217.640304	150.9676847	1073.361822	2180.595327	170.0419053	1042.822369	2232.795938	230.4121886	1099.882137	2194.756516	246.5650376	1065.5467	2311.375239	606.5067369	1150.141083	2248.747258	586.9200809	1118.199096	2267.295941	704.6522511	1174.942762	2207.960776	685.8476191	1145.022107
3379	22.52	2283.315097	1003.393642	914.3976283	1751.994963	541.0191988	940.7576895	1752.523687	510.114236	890.9532426	1797.560776	519.4519693	935.7502647	2220.116176	1067.057982	863.3150571	1727.098959	312.9995856	960.7281568	1711.221908	359.5830636	861.0451207	2112.003097	1032.034198	970.3840159	1870.614914	468.1109434	873.0182965	1868.137234	504.2956818	913.8804499	1948.311054	484.7621549	862.6190193	1946.735254	521.0465505	902.024419	2231.728332	561.5874976	857.7441562	2171.051455	563.3736177	899.6551952	2224.579086	670.4477609	842.6770504	2162.15736	671.1996993	875.0193942	2273.955984	1017.673743	1125.250618	2298.792394	41.54650769	1095.699647	2108.555834	34.66374339	1015.412072	2144.193691	57.11513899	1061.594294	2121.667587	82.40743343	1012.019705	2214.621023	1080.139066	1168.410212	2324.399116	45.43624346	983.2703596	2108.088479	1037.249454	1052.902623	2205.680946	151.2743085	1071.846454	2168.831067	171.6087856	1041.892184	2223.923582	230.0617517	1098.46745	2185.928104	247.5405992	1064.641775	2310.488267	602.5032239	1149.099745	2248.004573	582.8549031	1116.880041	2266.007956	700.3336103	1174.328463	2206.789896	681.4717684	1144.159869
3380	22.52666667	2280.594095	998.5274182	914.7867989	1762.384991	540.5511384	938.393784	1764.187003	509.4497919	888.8210942	1808.053309	518.9488462	934.8429445	2216.699845	1060.551386	863.0230737	1737.093913	312.634788	959.0337146	1723.857194	358.7291563	858.6264841	2109.334429	1027.403307	970.2157397	1881.869001	466.6616004	872.2962633	1879.616054	503.3145266	912.8393504	1959.74956	482.5901079	861.8774634	1958.400768	519.2771099	900.9578639	2241.244189	558.5695427	857.4802943	2179.932941	558.7130507	898.4553016	2231.441008	667.2308261	842.3641382	2168.363072	666.2231758	873.5457855	2271.134892	1012.848473	1125.560281	2282.305857	42.39640935	1095.417152	2092.431198	35.56734504	1014.981729	2128.047634	58.20142369	1061.094304	2105.808023	83.21680106	1011.267872	2211.756899	1072.752146	1169.306203	2307.987974	45.78775181	983.4258829	2105.270142	1032.446462	1052.388239	2192.987958	151.6082771	1070.652168	2156.467691	173.1034808	1041.123407	2214.070134	229.6958663	1097.291828	2176.274961	248.3867498	1063.819704	2308.444988	598.5071498	1148.100648	2246.086377	578.9921088	1115.548519	2263.858093	696.2006462	1173.635603	2204.747471	677.4583131	1143.15634
3381	22.53333333	2277.994584	994.4302118	915.1825618	1772.212925	538.9803675	936.3707104	1775.490558	507.7151714	886.9860001	1818.113508	517.7151537	934.1718497	2213.304749	1055.103234	862.8978175	1748.314278	311.0258627	957.5480541	1737.303726	356.5427219	856.5006746	2106.814927	1023.530378	969.992372	1893.190705	464.7796333	871.781255	1891.017011	501.9069596	911.9787095	1971.174898	480.3146915	861.3284682	1969.913223	517.4072176	900.0676887	2250.847217	556.5459657	857.2820169	2189.026789	555.0079645	897.3976987	2238.354483	664.9240743	842.1021635	2174.737068	662.155921	872.2085437	2268.479378	1008.556714	1125.999678	2265.711635	43.10153605	1095.168865	2076.212685	36.28745551	1014.605909	2111.791879	59.0364264	1060.688515	2089.764947	83.85211513	1010.69208	2208.618936	1066.030642	1170.105117	2291.403267	46.19768607	983.5926282	2102.635118	1028.286256	1051.848868	2179.588906	151.8722102	1069.760465	2143.511105	174.4273473	1040.5062	2203.238071	229.2384493	1096.359343	2165.779	249.0271233	1063.099064	2305.167116	594.5284001	1147.211528	2242.892482	575.3482542	1114.306794	2260.797483	692.2842633	1172.921559	2201.775833	673.846151	1142.091314
3382	22.54	2275.585368	991.1516422	915.5697995	1781.452341	536.2699025	934.7533431	1786.378053	504.9109486	885.4979452	1827.709665	515.6953043	933.768808	2210.045927	1050.850304	862.9179166	1760.631628	308.141247	956.2762833	1751.4158	353.0801716	854.6938867	2104.498102	1020.460605	969.7275318	1904.489686	462.4458556	871.4970601	1902.237219	500.0395737	911.3193073	1982.492451	477.9379404	860.9830047	1981.166072	515.430063	899.3686632	2260.461112	555.5326191	857.1331417	2198.235999	552.2857454	896.4361224	2245.264117	663.5466619	841.8635501	2181.228856	659.0264594	870.9781362	2266.030931	1004.864306	1126.536562	2249.03405	43.59470734	1094.943977	2059.878117	36.83348715	1014.288271	2095.428254	59.63662627	1060.361824	2073.551345	84.32483849	1010.262551	2205.258086	1060.131245	1170.765307	2274.686124	46.52552499	983.7379684	2100.234481	1024.832942	1051.313954	2165.54216	152.0175519	1069.138358	2129.989904	175.532738	1040.025381	2191.474271	228.6610553	1095.659436	2154.456464	249.4367312	1062.493812	2300.630031	590.6146951	1146.490387	2238.378504	571.9650657	1113.252026	2256.814522	688.6398054	1172.242394	2197.854421	670.6866205	1141.048434
3383	22.54666667	2273.420622	988.7181322	915.9387548	1790.113066	532.3796202	933.585706	1796.825512	501.0335142	884.3933596	1836.837947	512.8235628	933.6576773	2207.035234	1047.857943	863.0515198	1773.914438	303.9808541	955.2261329	1766.058568	348.4131042	853.2253041	2102.424009	1018.217644	969.4401496	1915.689242	459.6328069	871.4638556	1913.189185	497.6726816	910.8773861	1993.619933	475.446448	860.8478778	1992.06544	513.3256602	898.8693919	2270.005344	555.5267737	857.0228373	2207.451966	550.5555511	895.5204895	2252.113957	663.1014898	841.6270579	2187.776838	656.8464062	869.8190752	2263.814849	1001.826695	1127.13421	2232.294446	43.86159035	1094.739507	2043.416692	37.23577436	1014.032007	2078.961916	60.04357932	1060.103021	2057.182155	84.66689598	1009.952371	2201.78529	1055.191304	1171.265751	2257.876617	46.70082893	983.8506848	2098.103096	1022.135526	1050.813501	2150.925177	152.045317	1068.745402	2115.946948	176.4223401	1039.664096	2178.857501	227.9835196	1095.170412	2142.348723	249.6405987	1062.012291	2294.862638	586.8494323	1145.977096	2232.558269	568.9099264	1112.462541	2251.936015	685.3444639	1171.644399	2193.001592	668.0432448	1140.103023
3384	22.55333333	2271.538244	987.1356878	916.2852537	1798.235871	527.2690027	932.8912821	1806.837394	496.0757723	883.6955116	1845.517786	509.0306188	933.8540333	2204.370492	1046.119138	863.2625466	1788.041457	298.5758702	954.4062533	1781.1162	342.6233519	852.1055126	2100.619228	1016.805282	969.1505234	1926.728842	456.3102493	871.6964456	1923.804586	494.7648973	910.6656524	2004.489787	472.8164667	860.9265744	2002.533709	511.0644485	898.5745982	2279.397376	556.5086408	856.9458102	2216.562419	549.810959	894.6063587	2258.849053	663.5766354	841.3791074	2194.312372	655.6133726	868.6968455	2261.843512	999.4875688	1127.75877	2215.509036	43.92770582	1094.557441	2026.827198	37.54393079	1013.839574	2062.400121	60.31755312	1059.906402	2040.673474	84.92890306	1009.741931	2198.359385	1051.323197	1171.606117	2241.009646	46.71322768	983.9356076	2096.260979	1020.22665	1050.372339	2135.822694	152.0006876	1068.540154	2101.431002	177.142598	1039.406931	2165.484896	227.2685229	1094.863479	2129.512289	249.7065915	1061.656961	2287.940247	583.3438589	1145.687711	2225.498743	566.2724804	1111.98637	2246.223392	682.4907373	1171.157514	2187.271799	665.9892584	1139.311237
3385	22.56	2269.960475	986.3931985	916.6095653	1805.886385	520.9003677	932.6753008	1816.441866	490.028532	883.4161249	1853.787037	504.2501839	934.3652906	2202.12558	1045.563932	863.5165116	1802.913452	291.9869794	953.8243585	1796.498128	335.7985186	851.3361059	2099.098489	1016.210698	968.8769504	1937.565419	452.4507294	872.2025021	1934.036654	491.2774827	910.6943633	2015.050455	470.0193743	861.2200358	2012.51193	508.6110033	898.4875372	2288.554509	558.4423529	856.9015813	2225.45866	550.0324506	893.6637093	2265.416444	664.9462613	841.1136494	2200.764244	655.3134363	867.5847377	2260.121288	997.8773772	1128.384494	2198.686716	43.84308302	1094.402037	2010.115698	37.82588332	1013.712201	2045.751455	60.5321754	1059.772011	2024.042902	85.17884916	1009.621231	2195.165401	1048.60931	1171.802385	2224.111392	46.59581255	984.0066121	2094.716638	1019.122717	1050.006342	2120.31737	151.9635051	1068.485316	2086.490656	177.7734198	1039.242131	2151.460187	226.6119934	1094.706846	2116.010499	249.7345777	1061.424894	2279.972969	580.2258243	1145.612355	2217.309603	564.1583401	1111.834336	2239.765523	680.1777429	1170.791633	2180.749382	664.6035134	1138.702675
